# 3ds Max Wavefront OBJ Exporter v0.97b - (c)2007 guruware
# File Created: 20.01.2017 16:10:19

#
# object Plane001
#

v  -76.002724 0.000000 42.327011
v  -38.001362 0.000000 42.327011
v  0.000000 0.000000 42.327011
v  38.001362 0.000000 42.327011
v  76.002724 0.000000 42.327011
v  -76.002724 0.000000 21.163506
v  -38.001362 0.000000 21.163506
v  0.000000 0.000000 21.163506
v  38.001362 0.000000 21.163506
v  76.002724 0.000000 21.163506
v  -76.002724 0.000000 -0.000000
v  -38.001362 0.000000 -0.000000
v  0.000000 0.000000 -0.000000
v  38.001362 0.000000 -0.000000
v  76.002724 0.000000 -0.000000
v  -76.002724 0.000000 -21.163506
v  -38.001362 0.000000 -21.163506
v  0.000000 0.000000 -21.163506
v  38.001362 0.000000 -21.163506
v  76.002724 0.000000 -21.163506
v  -76.002724 0.000000 -42.327011
v  -38.001362 0.000000 -42.327011
v  0.000000 0.000000 -42.327011
v  38.001362 0.000000 -42.327011
v  76.002724 0.000000 -42.327011
# 25 vertices

vn 0.000000 1.000000 -0.000000
# 1 vertex normals

vt 0.000000 0.000000 0.000000
vt 0.250000 0.000000 0.000000
vt 0.250000 0.250000 0.000000
vt 0.000000 0.250000 0.000000
vt 0.500000 0.000000 0.000000
vt 0.500000 0.250000 0.000000
vt 0.750000 0.000000 0.000000
vt 0.750000 0.250000 0.000000
vt 1.000000 0.000000 0.000000
vt 1.000000 0.250000 0.000000
vt 0.250000 0.500000 0.000000
vt 0.000000 0.500000 0.000000
vt 0.500000 0.500000 0.000000
vt 0.750000 0.500000 0.000000
vt 1.000000 0.500000 0.000000
vt 0.250000 0.750000 0.000000
vt 0.000000 0.750000 0.000000
vt 0.500000 0.750000 0.000000
vt 0.750000 0.750000 0.000000
vt 1.000000 0.750000 0.000000
vt 0.250000 1.000000 0.000000
vt 0.000000 1.000000 0.000000
vt 0.500000 1.000000 0.000000
vt 0.750000 1.000000 0.000000
vt 1.000000 1.000000 0.000000
# 25 texture coords

g Plane001
s 1
f -25/-25/-1 -24/-24/-1 -19/-23/-1 -20/-22/-1 
f -24/-24/-1 -23/-21/-1 -18/-20/-1 -19/-23/-1 
f -23/-21/-1 -22/-19/-1 -17/-18/-1 -18/-20/-1 
f -22/-19/-1 -21/-17/-1 -16/-16/-1 -17/-18/-1 
f -20/-22/-1 -19/-23/-1 -14/-15/-1 -15/-14/-1 
f -19/-23/-1 -18/-20/-1 -13/-13/-1 -14/-15/-1 
f -18/-20/-1 -17/-18/-1 -12/-12/-1 -13/-13/-1 
f -17/-18/-1 -16/-16/-1 -11/-11/-1 -12/-12/-1 
f -15/-14/-1 -14/-15/-1 -9/-10/-1 -10/-9/-1 
f -14/-15/-1 -13/-13/-1 -8/-8/-1 -9/-10/-1 
f -13/-13/-1 -12/-12/-1 -7/-7/-1 -8/-8/-1 
f -12/-12/-1 -11/-11/-1 -6/-6/-1 -7/-7/-1 
f -10/-9/-1 -9/-10/-1 -4/-5/-1 -5/-4/-1 
f -9/-10/-1 -8/-8/-1 -3/-3/-1 -4/-5/-1 
f -8/-8/-1 -7/-7/-1 -2/-2/-1 -3/-3/-1 
f -7/-7/-1 -6/-6/-1 -1/-1/-1 -2/-2/-1 
# 16 polygons

